<?xml version="1.0" encoding="utf-8"?>
<!-- Generator: Adobe Illustrator 27.5.0, SVG Export Plug-In . SVG Version: 6.00 Build 0)  -->
<svg version="1.1" id="レイヤー_1" xmlns="http://www.w3.org/2000/svg" xmlns:xlink="http://www.w3.org/1999/xlink" x="0px"
	 y="0px" viewBox="0 0 1273 483" style="enable-background:new 0 0 1273 483;" xml:space="preserve">
<style type="text/css">
	.st0{fill:#F6F9FF;stroke:#2C3033;stroke-width:0.9038;}
	.st1{fill:#3E8AE4;}
</style>
<path class="st0" d="M66.2,46.8h1141.1c2.3,0,4.1,1.8,4.1,4.1v427.5c0,2.3-1.8,4.1-4.1,4.1H66.2c-2.3,0-4.1-1.8-4.1-4.1V50.9
	C62.1,48.7,63.9,46.8,66.2,46.8z"/>
<path class="st1" d="M812.6,16.1l-1.4,65.4c-28.5,3.8-97.2,0.2-144.4,0.5c-47.2,0.3-192.2-3.4-206.5,0.7l0.2-68.7
	c33.7-0.1,190.8-7.3,232.7-0.8C748.6,15.3,812.7,14.2,812.6,16.1z"/>
</svg>
