<svg xmlns="http://www.w3.org/2000/svg" width="208.8666" height="35.7336" viewBox="0 0 208.8666 35.7336"><path d="M184.61,7.27h-1.78v3.5h-6.76v1.78h6.65a10.5,10.5,0,0,1-6.56,8.25l.72,1.63a12.44,12.44,0,0,0,6.83-6.78,12.38,12.38,0,0,0,6.82,6.78l.72-1.63a10.5,10.5,0,0,1-6.56-8.25h6.9V10.77h-7V7.27" transform="translate(0.0066 0.0936)"/><path d="M208.78,16.3H202.5a8.9208,8.9208,0,0,0,3.18-2.37l.18-.24V12.36h-9.43v1.8h6.25A8.6108,8.6108,0,0,1,201,15l-.62.2v1.1h-6.74v1.8h6.74v2.58h-2.66v1.8h2.66a1.84,1.84,0,0,0,1.85-1.82V18.1h6.63V16.3" transform="translate(0.0066 0.0936)"/><path d="M207.8,9.51h-1.46a15.5769,15.5769,0,0,0,.84-1.91L205.5,7a16.1623,16.1623,0,0,1-1.18,2.5h-1.87a13.1413,13.1413,0,0,0-1-2.66l-1.57.84a11.5717,11.5717,0,0,1,.77,1.82H198.1A14.4211,14.4211,0,0,0,197,6.85l-1.57.84a12.4142,12.4142,0,0,1,.76,1.82h-2.5V13h1.78V11.29h11.44V13h1.78V9.51h-.89" transform="translate(0.0066 0.0936)"/><path d="M167.8,15.63h5.7V13.85h-3.07a14.93,14.93,0,0,0,.91-2.49l-1.72-.44a11.1193,11.1193,0,0,1-1.22,2.93h-1.46V10.72H173V8.94h-6.07V7.23h-1.79V8.94h-6.08v1.78h6.08v3.13H163.5a18.4518,18.4518,0,0,0-1.27-3.06l-1.56.86a16.0861,16.0861,0,0,1,1,2.2h-3.2v1.78h5.78a17,17,0,0,1-5.93,4.71l.78,1.6a19.3505,19.3505,0,0,0,6.1-4.66v5.06h1.79V17.39a19.36,19.36,0,0,0,6,4.55l.77-1.6a17,17,0,0,1-5.93-4.71" transform="translate(0.0066 0.0936)"/><path d="M150.11,15.39h5.37V13.61h-6.57V10.72h5.8V8.94h-5.8V7.23h-1.77V8.94h-5.8v1.78h5.8v2.89H140.4v1.78H146a15.14,15.14,0,0,1-5.71,4.95l.78,1.6a18.1709,18.1709,0,0,0,6.11-5.13v5.53h1.77V16.78a18.1508,18.1508,0,0,0,6.14,5.16l.78-1.6a15.1,15.1,0,0,1-5.72-4.95" transform="translate(0.0066 0.0936)"/><path d="M87.14,16.35c0-.09-.07-4.11-.07-4.27h3v-2H87V7.46h-.1L85,7.49v2.63H80.21v2h4.9c0,.15.06,3.42.06,3.61a6.1471,6.1471,0,0,0-1.28-.15c-2.66,0-3.85,1.65-3.85,3.28,0,1.45,1.19,2.9,3.85,2.9a3.32,3.32,0,0,0,2.47-.89,3.06,3.06,0,0,0,.81-2.23h0a12.0866,12.0866,0,0,1,1.93,1.71l.06.06L90.53,19v-.06a12.51,12.51,0,0,0-3.34-2.63m-5.22,2.47c0-.88.74-1.4,2-1.4a4.6875,4.6875,0,0,1,1.32.21v.97a1.27,1.27,0,0,1-.27.91,1.45,1.45,0,0,1-1.06.33c-.96.04-2.04-.22-2.04-.98Z" transform="translate(0.0066 0.0936)"/><path d="M78.4,8.25V8.17l-1.92-.33v.09a49.7292,49.7292,0,0,0,0,13.68v.08l1.94-.27v-.09a48.09,48.09,0,0,1,0-13.08" transform="translate(0.0066 0.0936)"/><path d="M98,11.14h-.07l1.21,1.45.06-.05a14.66,14.66,0,0,1,5.5-2.17h.07V8.47H94.07v1.95h5a8.59,8.59,0,0,0-1.09.72" transform="translate(0.0066 0.0936)"/><path d="M100.31,19.55c-3.42,0-4.77-.44-5.15-1.68s1.23-3,1.3-3.11l.06-.06-1.34-1.32-.06.06a6.75,6.75,0,0,0-1.9,4.06,3.4323,3.4323,0,0,0,.14,1c.85,2.77,3.9,3,7,3,2.54,0,4.16-.11,4.74-.15h.08V19.38H105s-1.72.16-4.72.16" transform="translate(0.0066 0.0936)"/><path d="M119.33,7.39h-1.7V9.7H113a20.8606,20.8606,0,0,0,.25-2.16V7.45l-2-.12v.09A21.5618,21.5618,0,0,1,111,9.7h-2.74v2h2.38a50.7938,50.7938,0,0,1-2.93,9.28v.08l1.8.78v-.08a52.6043,52.6043,0,0,0,3.14-10.06h6.67V7.39" transform="translate(0.0066 0.0936)"/><polyline points="114.887 14.624 121.597 14.624 121.597 12.674 114.887 12.674 114.887 14.624"/><polyline points="120.187 7.484 120.187 11.744 121.887 11.744 121.887 7.484 120.187 7.484"/><path d="M121.84,19.6l-3.08.1c-2.73,0-3.37-.16-3.59-.94a1.6723,1.6723,0,0,1,.72-1.62l.07-.06-1.2-1.45h-.06a3.81,3.81,0,0,0-1.34,3.68h0c.68,2.29,3,2.29,5.4,2.29l3.08-.09v-2" transform="translate(0.0066 0.0936)"/><path d="M138.13,8.86H124.42v2h6.92c-2,1.13-3.89,3.61-3.89,6a4.05,4.05,0,0,0,.1.92c.35,1.49,1.93,4,8.67,4h.09v-2h-.09c-4.34,0-6.84-1.17-6.87-3.22,0-2.47,3.74-5.58,8.2-5.7h.67v-2h-.09" transform="translate(0.0066 0.0936)"/><path d="M72.38,9.4H66.3V7.32H64.39V9.4H58.3v1.95H72.38V9.4" transform="translate(0.0066 0.0936)"/><path d="M62,11.92V12l-1.7.67v.08a28.64,28.64,0,0,1,1.52,6.7v.09l1.91-.13v-.08A30.1714,30.1714,0,0,0,62.06,12v-.08" transform="translate(0.0066 0.0936)"/><path d="M70.05,12.29v-.08l-1.88-.38v.08a43.26,43.26,0,0,1-2.3,8h-8.2v1.94H73V19.91H67.94a46.8538,46.8538,0,0,0,2.11-7.62" transform="translate(0.0066 0.0936)"/><path d="M41.35,14.33a23.0714,23.0714,0,0,0,4.81-6V8.25l-1.72-.91v.08a21.3179,21.3179,0,0,1-4.37,5.43L40,12.9l1.28,1.47.07-.06" transform="translate(0.0066 0.0936)"/><path d="M51.06,7.44V7.36h-.08l-1.65.85v.08a23.2889,23.2889,0,0,0,4.81,6.07l.07.06L55.5,13h-.06a21.4094,21.4094,0,0,1-4.38-5.52" transform="translate(0.0066 0.0936)"/><path d="M51.25,15.44v-.07l-1.57,1.17.26.34c.5.66,1,1.35,1.5,2.09l-5.88.71a35.7317,35.7317,0,0,0,2.76-7.24v-.08L46.37,12v.08A31.999,31.999,0,0,1,43.12,20l-2,.24.21,1.94,11.09-1.32.84,1.53h.07L55,21.45v-.08a42.1949,42.1949,0,0,0-3.74-5.93" transform="translate(0.0066 0.0936)"/><path d="M14.81,14.05a2.87,2.87,0,0,1,1,2.26,3,3,0,0,1-5.78,1.12A12.5625,12.5625,0,0,1,9.67,16a4.92,4.92,0,1,0-5.1,6.17h1.5a2.79,2.79,0,0,1,2.12,4.46c-.32.42-.83.85-1.11,1.22a4.0906,4.0906,0,0,0-.91,2.47,3.8,3.8,0,0,0,3.8,3.8,3.75,3.75,0,0,0,3.09-1.59c.17-.24.62-1,.76-1.17A3.08,3.08,0,0,1,16.36,30a3.21,3.21,0,0,1,2.36,1.11,11.735,11.735,0,0,1,.87,1.34A6.42,6.42,0,0,0,25,35.64a6.25,6.25,0,0,0,4.91-10.1,15.7048,15.7048,0,0,1-1-1.28A2.75,2.75,0,0,1,30.32,20c.43-.12.86-.15,1.4-.26a4.86,4.86,0,0,0-1-9.63,5.37,5.37,0,0,0-2.36.61c-.37.18-1,.64-1.22.77a1.89,1.89,0,0,1-.89.21,2,2,0,0,1-2-2h0a6.5473,6.5473,0,0,1,.12-1.17,5.92,5.92,0,0,0,.13-1.34A7.14,7.14,0,1,0,13.42,13c.28.19,1.09.77,1.39,1" transform="translate(0.0066 0.0936)" style="fill:#900"/><path d="M41.36,26.1v6.11h1.19V29.58h1.9V28.51h-1.9V27.17h1.9V26.1H41.36" transform="translate(0.0066 0.0936)"/><path d="M50.43,26.1v4.17c0,.67-.23.92-.87.92s-.88-.25-.88-.92V26.1H47.49v4.43a1.81,1.81,0,0,0,2.07,1.78,1.8,1.8,0,0,0,2.06-1.78V26.1H50.43" transform="translate(0.0066 0.0936)"/><path d="M54.54,26.1v1.12h1.28v5H57v-5h1.3V26.1H54.54" transform="translate(0.0066 0.0936)"/><path d="M64.15,26.1v4.17c0,.67-.24.92-.88.92s-.88-.25-.88-.92V26.1H61.21v4.43a2.08,2.08,0,0,0,4.12,0V26.1H64.15" transform="translate(0.0066 0.0936)"/><path d="M72.48,28.06a1.83,1.83,0,0,0-1.93-2H68.68v6.11h1.19V29.78c.24.36,1.57,2.43,1.57,2.43h1.41L71.17,29.8a1.6,1.6,0,0,0,1.31-1.74m-2.61-.89h.44c.69,0,1,.28,1,.92s-.27.78-.93.78h-.5Z" transform="translate(0.0066 0.0936)"/><path d="M76.87,29.57h2.07V28.5H76.87V27.17h2V26.1H75.68v6.11H79V31.14H76.87V29.57" transform="translate(0.0066 0.0936)"/><path d="M90,26.1v4.17c0,.67-.24.92-.88.92s-.87-.25-.87-.92V26.1H87v4.43a2.08,2.08,0,0,0,4.12,0V26.1H90" transform="translate(0.0066 0.0936)"/><path d="M97.51,26.1v3.6l-1.75-3.6H94.54v6.11h1.07V28.28l2,3.93h1V26.1h-1.1" transform="translate(0.0066 0.0936)"/><rect x="102.2366" y="26.1936" width="1.19" height="6.11"/><path d="M109.8,26.1l-1.12,4.12c-.13-.48-1.08-4.12-1.08-4.12h-1.24l1.79,6.11h1.07L111,26.1h-1.2" transform="translate(0.0066 0.0936)"/><path d="M115.05,29.57h2.07V28.5h-2.07V27.17h2V26.1h-3.22v6.11h3.27V31.14h-2.08V29.57" transform="translate(0.0066 0.0936)"/><path d="M124.36,28.06a1.83,1.83,0,0,0-1.93-2h-1.88v6.11h1.2V29.78l1.57,2.43h1.4S123.17,30,123,29.8a1.61,1.61,0,0,0,1.32-1.74m-2.62-.89h.44c.69,0,1,.28,1,.92s-.27.78-.93.78h-.5Z" transform="translate(0.0066 0.0936)"/><path d="M129.23,28.52c-.57-.19-.92-.33-.92-.77a.6.6,0,0,1,.61-.68c.55,0,.68.55.7.78v.08h1.11v-.09a1.73,1.73,0,0,0-1.6165-1.8365Q129.0568,26,129,26a1.67,1.67,0,0,0-1.7672,1.5668q-.0036.0615-.0028.1232a1.82,1.82,0,0,0,1.55,1.9c.55.19,1,.34,1,.89a.72.72,0,0,1-.6788.759c-.017.0009-.0341.0013-.0512.001-.47,0-.72-.3-.79-1V30.2h-1.11v.08a1.85,1.85,0,0,0,1.88,2,1.77,1.77,0,0,0,1.89-1.89c0-1.36-.89-1.66-1.61-1.9" transform="translate(0.0066 0.0936)"/><rect x="134.0366" y="26.1936" width="1.19" height="6.11"/><path d="M138.15,26.1v1.12h1.29v5h1.18v-5h1.29V26.1h-3.76" transform="translate(0.0066 0.0936)"/><path d="M147,26.1l-.91,2.33c-.14-.34-.91-2.33-.91-2.33h-1.27l1.58,3.66v2.45h1.18V29.73l1.6-3.63H147" transform="translate(0.0066 0.0936)"/><path d="M158.59,26.1v2.38h-1.72V26.1h-1.19v6.11h1.19V29.55h1.72v2.66h1.19V26.1h-1.19" transform="translate(0.0066 0.0936)"/><polyline points="174.847 26.194 173.427 26.194 171.927 28.564 171.927 26.194 170.747 26.194 170.747 32.304 171.927 32.304 171.927 30.244 172.367 29.554 173.687 32.304 174.997 32.304 173.177 28.604 174.847 26.194"/><path d="M180,26c-1.39,0-2.28,1.24-2.28,3.16s.89,3.15,2.28,3.15,2.29-1.24,2.29-3.15S181.38,26,180,26m0,5.24c-.68,0-1.09-.78-1.09-2.08s.41-2.09,1.09-2.09,1.1.78,1.1,2.09S180.68,31.24,180,31.24Z" transform="translate(0.0066 0.0936)"/><path d="M187.61,26.1h-2.08v6.11h1.8c1.56,0,2.53-1.17,2.53-3.05s-.88-3.06-2.25-3.06m-.89,1.07h.68c.83,0,1.28.69,1.28,2s-.46,2-1.28,2h-.68Z" transform="translate(0.0066 0.0936)"/><path d="M199.07,26.1v1.12h1.29v5h1.18v-5h1.29V26.1h-3.76" transform="translate(0.0066 0.0936)"/><path d="M206.69,31.14V29.57h2.07V28.5h-2.07V27.17h2V26.1h-3.22v6.11h3.27V31.14h-2.09" transform="translate(0.0066 0.0936)"/><path d="M195.78,32.21H197l-1.9-6.11h-1l-1.88,6.11h1.23l.28-1h1.77l.3,1m-1.8-2.1.57-2.08.6,2.08Z" transform="translate(0.0066 0.0936)"/><path d="M166.44,32.21h1.22l-1.9-6.11h-1l-1.88,6.11h1.23l.28-1h1.77l.3,1m-1.78-2.1.57-2.08.6,2.08Z" transform="translate(0.0066 0.0936)"/></svg>