<?xml version="1.0" encoding="utf-8"?>
<!-- Generator: Adobe Illustrator 27.5.0, SVG Export Plug-In . SVG Version: 6.00 Build 0)  -->
<svg version="1.1" id="レイヤー_1" xmlns="http://www.w3.org/2000/svg" xmlns:xlink="http://www.w3.org/1999/xlink" x="0px"
	 y="0px" viewBox="0 0 2000 1341" style="enable-background:new 0 0 2000 1341;" xml:space="preserve">
<style type="text/css">
	.st0{fill:#8DBBFF;}
</style>
<path class="st0" d="M0,536.6l55.5,30c55.6,30.6,166.7,89.7,277.9,105.2c111.1,15.5,222.2-15.5,333.4-7.5
	c111.1,7.5,222.2,52.5,333.3,30c111.1-22.5,222.2-112.7,333.3-120.1c111.1-8,222.2,68,333.4,97.6s222.2,15.5,277.7,7.5l55.5-7.5
	v1098.8h-67.3c-55.5,0-166.6,0-277.7,0c-111.1,0-222.2,0-333.4,0s-222.2,0-333.3,0s-222.2,0-333.4,0s-222.2,0-333.3,0
	s-222.2,0-277.7,0H-0.1L0,536.6z"/>
</svg>
