<?xml version="1.0" encoding="utf-8"?>
<!-- Generator: Adobe Illustrator 27.5.0, SVG Export Plug-In . SVG Version: 6.00 Build 0)  -->
<svg version="1.1" id="レイヤー_1" xmlns="http://www.w3.org/2000/svg" xmlns:xlink="http://www.w3.org/1999/xlink" x="0px"
	 y="0px" viewBox="0 0 2000 1341" style="enable-background:new 0 0 2000 1341;" xml:space="preserve">
<style type="text/css">
	.st0{fill:#8DBBFF;}
	.st1{fill:#7688FF;}
	.st2{fill:#584EFF;}
</style>
<path class="st0" d="M0,0l39.4,21.3C78.9,43,157.8,85,236.7,96s157.8-11,236.7-5.3C552.3,96,631.2,128,710.1,112
	s157.8-80,236.7-85.3C1025.7,21,1104.6,75,1183.5,96s157.8,11,197.2,5.3l39.4-5.3v780.2h-47.8c-39.4,0-118.3,0-197.2,0
	s-157.8,0-236.7,0s-157.8,0-236.7,0s-157.8,0-236.7,0s-157.8,0-236.7,0s-157.8,0-197.2,0H-0.1L0,0z"/>
<path class="st1" d="M0,232.4l39.4,21.3c39.5,21.7,118.4,63.7,197.3,74.7s157.8-11,236.7-5.3c78.9,5.3,157.8,37.3,236.7,21.3
	s157.8-80,236.7-85.3c78.9-5.7,157.8,48.3,236.7,69.3s157.8,11,197.2,5.3l39.4-5.3v780.2h-47.8c-39.4,0-118.3,0-197.2,0
	s-157.8,0-236.7,0s-157.8,0-236.7,0s-157.8,0-236.7,0s-157.8,0-236.7,0s-157.8,0-197.2,0H-0.1L0,232.4z"/>
<path class="st2" d="M0,461.3l39.4,21.3c39.5,21.7,118.4,63.7,197.3,74.7s157.8-11,236.7-5.3c78.9,5.3,157.8,37.3,236.7,21.3
	s157.8-80,236.7-85.3c78.9-5.7,157.8,48.3,236.7,69.3s157.8,11,197.2,5.3l39.4-5.3v780.2h-47.8c-39.4,0-118.3,0-197.2,0
	s-157.8,0-236.7,0s-157.8,0-236.7,0s-157.8,0-236.7,0s-157.8,0-236.7,0s-157.8,0-197.2,0H-0.1L0,461.3z"/>
</svg>
