<?xml version="1.0" encoding="utf-8"?>
<!-- Generator: Adobe Illustrator 27.5.0, SVG Export Plug-In . SVG Version: 6.00 Build 0)  -->
<svg version="1.1" id="レイヤー_1" xmlns="http://www.w3.org/2000/svg" xmlns:xlink="http://www.w3.org/1999/xlink" x="0px"
	 y="0px" viewBox="0 0 1912 208" style="enable-background:new 0 0 1912 208;" xml:space="preserve">
<style type="text/css">
	.st0{fill:#FFF500;}
	.st1{fill:#2F2F30;}
</style>
<rect x="620" y="138" class="st0" width="270" height="13"/>
<path class="st1" d="M453.4,89.7c-0.4,1.7-0.6,3.1-0.8,4.5c-0.8,7.2-3.7,26.9-3.7,33.8c0,6.2,3.5,10,10.8,10
	c9.7,0,15.9-4.2,15.9-10.9c0-4.3-2.3-9-7-13l5.6-1.2c4.4,4.9,6.6,9.3,6.6,14.8c0,9.5-8.5,15.4-21.2,15.4c-8.6,0-15.7-3.8-15.7-14.3
	c0-6.8,3-26,3.7-34.8c0.2-2.2,0.2-3.4,0.1-4.5L453.4,89.7z M432.9,98.2c5.4,1.7,13.1,2.6,18.8,2.6c4.9,0,9.3-0.3,13.1-0.8l-0.1,4.9
	c-4.1,0.4-7.9,0.6-13.1,0.6c-5.6,0-13.3-1-18.9-2.5L432.9,98.2z M431.3,114.1c6.2,2.2,13.7,2.8,19.6,2.8c4.4,0,8.8-0.1,13.3-0.8
	l-0.1,4.9c-4.3,0.4-8.3,0.6-12.5,0.6c-7,0-14.7-0.8-20.5-2.6L431.3,114.1z M502.5,114.5c1.9-0.3,4-0.9,6-1.5
	c4.5-1.4,15.1-5.2,22.6-5.2c9.1,0,15.7,5.4,15.7,14.1c0,12.4-11.9,18.6-29.1,19.6l-2.1-4.9c13.9-0.4,26-4.4,26-14.8
	c0-5.4-4.3-9.5-10.9-9.5c-7.9,0-21.9,5.8-26,7.5L502.5,114.5z M611.5,101.9c-1.4,0.8-3,1.7-4.9,2.7c-4.3,2.2-13.2,6.5-19.5,10.6
	c-6,3.9-9.5,8.1-9.5,12.9c0,5.3,5.1,8.6,15.2,8.6c6.9,0,15.5-0.9,20.5-2.2l-0.1,5.8c-4.8,0.8-12.2,1.5-20.2,1.5
	c-12,0-20.7-3.6-20.7-13.2c0-6.9,4.7-12.4,12.2-17.3c6.5-4.4,15.5-8.6,19.6-11c1.9-1.1,3.3-1.9,4.6-3L611.5,101.9z M579.1,90.2
	c2.9,8.2,6.9,16.2,9.9,21.4l-4.4,2.6c-3.3-5.2-7.1-13.9-10.6-21.8L579.1,90.2z M646.8,118.8h40.6v4.4h-40.6V118.8z M670.4,92.8h4.5
	v12.5c0,1.4,0.2,1.7,1.9,1.7c0.7,0,4.5,0,5.4,0c1.3,0,1.6-0.6,1.7-5c1,0.7,2.8,1.3,4,1.6c-0.4,5.8-1.7,7.3-5.2,7.3c-1,0-5.6,0-6.5,0
	c-4.7,0-5.8-1.2-5.8-5.5V92.8z M647.7,89.1H687v10.7h-4.4v-6.6H652v7.7h-4.3V89.1z M664.3,111.6h4.7v33.5h-4.7V111.6z M659.8,92.8
	h4.5c-0.6,11.4-3.2,17.2-15.2,20.4c-0.4-1.1-1.6-2.8-2.4-3.6C657.3,107.1,659.3,102.5,659.8,92.8z M670.9,120.9
	c3.6,6.8,10.8,14,17.6,17.2c-1.2,0.9-2.7,2.6-3.5,3.9c-6.8-4-13.8-12-17.7-19.8L670.9,120.9z M662.8,120.5l3.8,1.3
	c-4.2,8.7-12,16.6-19.8,20.7c-0.7-1.1-2-2.8-3.1-3.6C651.3,135.4,658.9,128.1,662.8,120.5z M632.1,90.5L635,87c4,1.8,8.9,4.8,11.3,7
	l-2.9,3.9C641,95.6,636.2,92.4,632.1,90.5z M629.2,108.1l2.4-3.7c4.1,1.3,9.2,3.6,11.8,5.6l-2.6,4.2
	C638.3,112.1,633.3,109.6,629.2,108.1z M630.9,141.5c3.1-4.9,7.5-13.2,10.8-20.3l3.7,2.8c-3,6.7-6.9,14.5-10.3,20.4L630.9,141.5z
	 M739,92.8c-1.4,1-3.4,2.8-4.4,3.6c-4.4,3.8-13.6,11.1-18.4,15c-3.8,3.3-3.9,4.3,0.3,7.7c5.8,4.8,17.2,13.9,23.9,20.7l-4.5,4.2
	c-1.3-1.5-2.9-3.1-4.4-4.7c-4.5-4.6-14.2-12.9-20.2-17.9c-6-5.1-5.3-7.8,0.4-12.7c4.9-4,14.6-11.7,18.9-16.1
	c1.3-1.3,2.9-3.1,3.6-4.3L739,92.8z M798.1,133.7H817v4.5h-18.9V133.7z M796.1,91.8h23v50.8h-4.8V96.4h-13.6v47h-4.6V91.8z
	 M777.2,97.1h4.9v12.9c0,10.9-2.2,25.6-15.4,35.1c-0.6-1-2.4-2.9-3.4-3.6c12.5-8.9,14-21.6,14-31.6V97.1z M770.6,94.9h21.6v4.5
	h-21.6V94.9z M763.9,112.1h30.1v4.6h-30.1V112.1z M780.5,120.5c2.5,2.2,11.3,12.1,13.3,14.5l-3.3,4c-2.7-3.9-10-12.7-13-15.8
	L780.5,120.5z M771.1,86.2l4.7,0.9c-1.9,8.6-4.9,16.8-8.7,22.3c-0.8-0.8-2.9-2.1-4-2.8C767,101.7,769.6,94,771.1,86.2z M843.5,92.9
	c1.4,0.1,3.2,0.2,4.5,0.2c3.4,0,18.6-0.4,22-0.8c1.9-0.2,2.8-0.3,3.5-0.6l2.9,3.8c-1.2,0.8-2.4,1.6-3.6,2.6
	c-3.1,2.4-11.8,9.9-16.8,14c2.9-1,6-1.3,8.9-1.3c10.6,0,18.2,6.3,18.2,15c0,10.3-8.5,17-22.1,17c-8.7,0-14-3.8-14-9.2
	c0-4.4,4-8.3,9.9-8.3c8.5,0,12.8,6,13.2,12.5l-4.6,0.8c-0.4-5.4-3.5-9.3-8.6-9.3c-2.9,0-5.2,1.8-5.2,4c0,3.1,3.5,5,8.6,5
	c10.9,0,17.7-4.5,17.7-12.5c0-6.3-6-11-14.4-11c-10.6,0-16.4,4.5-24.4,12.7l-3.7-3.7c5.3-4.4,13.6-11.3,17.2-14.4
	c3.6-2.9,11.6-9.7,14.8-12.5c-3.4,0.2-16.2,0.7-19.5,0.9c-1.5,0.1-2.9,0.2-4.3,0.4L843.5,92.9z M922.8,122.9h25.5v3.7h-25.5V122.9z
	 M916.9,91.3h38v3.6h-38V91.3z M918.4,99h34.9v3.5h-34.9V99z M914.9,107h41.9v3.6h-41.9V107z M922.8,131.5h25.7v3.6h-25.7V131.5z
	 M919.6,114.5h28.7v3.7H924v26.9h-4.5V114.5z M947.1,114.5h4.6v25.3c0,2.4-0.5,3.7-2.3,4.4c-1.8,0.7-4.7,0.8-9.2,0.7
	c-0.2-1.2-0.8-2.9-1.4-4.2c3.2,0.1,6.3,0.1,7.2,0.1c0.9,0,1.2-0.3,1.2-1.1V114.5z M933.3,86.2h4.7v22h-4.7V86.2z M905.2,86.2h4.4
	v58.8h-4.4V86.2z M900.1,98.6l3.6,0.5c-0.2,5-1.3,12.4-2.8,17.2l-3.7-1.2C898.7,110.7,899.7,103.6,900.1,98.6z M910.2,96.9l3.2-1.3
	c1.4,2.9,2.9,6.7,3.5,9.1l-3.3,1.6C912.9,103.9,911.4,99.9,910.2,96.9z M998.3,111h20.9v4h-20.9V111z M995.8,89.2h22.9v4.3h-18.5
	v51.6h-4.4V89.2z M1016.5,89.2h4.5v12.4c0,2.4-0.5,3.6-2.5,4.4c-2,0.7-5.2,0.8-10.1,0.8c-0.2-1.3-0.8-3-1.5-4.2
	c4,0.1,7.3,0.1,8.3,0.1c1-0.1,1.3-0.3,1.3-1V89.2z M1004.5,113.6c3.5,12,10.7,22.9,20.3,27.6c-1.1,1-2.6,2.7-3.3,3.9
	c-9.9-5.6-17-17.2-20.7-30.5L1004.5,113.6z M1017.7,111h0.9l0.8-0.3l2.9,1.1c-2.5,13.9-8.8,26.5-19.1,33.4c-0.7-1.1-2.1-2.4-3.2-3.3
	c9.6-6.3,15.6-18.2,17.6-30V111z M967.6,92.8h23.7V97h-23.7V92.8z M966.9,127.8h25.3v4.2h-25.3V127.8z M965.3,103.4h28.5v4.2h-28.5
	V103.4z M966.2,116.7H993v4.2h-26.8V116.7z M977.5,86.4h4.5v18.5h-4.5V86.4z M977.5,118.4h4.5V145h-4.5V118.4z M986.1,107.3l4.1,1.1
	c-1.3,3.1-2.5,6.4-3.7,8.6l-3.6-1.1C984,113.6,985.4,109.8,986.1,107.3z M969.8,108.3l3.6-0.9c1.4,2.7,2.7,6.3,3,8.6l-3.8,1.1
	C972.3,114.8,971.1,111.1,969.8,108.3z M1042.9,93.3c1.8,0.2,3.7,0.3,5.8,0.3c3.7,0,18.6,0,22.2,0c1.8,0,4.1-0.1,6-0.3v5.3
	c-1.9-0.1-4.2-0.3-6-0.3c-3.6,0-18.5,0-22.1,0c-2.2,0-4.2,0.1-5.9,0.3V93.3z M1035.3,109.3c1.7,0.2,3.6,0.3,5.6,0.3
	c3.7,0,38.5,0,41.8,0c1.4,0,3.5-0.1,5.1-0.3v5.3c-1.4-0.1-3.5-0.2-5.1-0.2c-3.4,0-38.1,0-41.8,0c-1.9,0-3.8,0.1-5.6,0.2V109.3z
	 M1065.4,111.9c0,8.1-1,14.7-3.8,20.1c-2.4,4.3-7.2,8.9-12.6,11.6l-4.7-3.5c4.9-2.1,9.5-5.8,12.1-9.9c3.2-5.1,3.6-11.3,3.7-18.4
	L1065.4,111.9z M1080.1,88c1.6,2.3,3.9,6.2,5.2,8.8l-3.5,1.5c-1.2-2.6-3.4-6.4-5.1-8.8L1080.1,88z M1087.1,85.5
	c1.7,2.4,4.2,6.3,5.4,8.7l-3.4,1.5c-1.4-2.8-3.5-6.4-5.3-8.8L1087.1,85.5z M1148,91.2c1.2,2.3,2.9,6.3,3.8,8.8l-3.2,1.1
	c-0.9-2.7-2.4-6.5-3.6-9L1148,91.2z M1154.4,89.2c1.2,2.4,2.9,6.3,3.8,8.8l-3.2,1.1c-1-2.9-2.4-6.5-3.8-9L1154.4,89.2z M1142,111.8
	c0,17-3.6,25.8-18.2,32.3l-4.3-4c11.6-4.5,17.5-10,17.5-27.9V96.6c0-2.5-0.2-4.6-0.3-5.2h5.8c-0.1,0.6-0.3,2.8-0.3,5.2V111.8z
	 M1118.9,91.8c-0.1,0.6-0.3,2.4-0.3,4.6v23.5c0,2.3,0.2,5.1,0.2,5.8h-5.6c0.1-0.6,0.3-3.3,0.3-5.8V96.4c0-1.3-0.1-3.2-0.3-4.6
	H1118.9z M1100.2,104.2c0.6,0.1,3.7,0.4,6.5,0.4h42.4c2.8,0,5-0.2,5.9-0.3v5.4c-0.7-0.1-3.1-0.2-5.9-0.2h-42.4
	c-2.8,0-5.7,0.1-6.5,0.2V104.2z M1169.8,116.9c11.1-2.9,20.8-7.5,27.9-11.9c6.7-4.2,13.1-9.7,17.5-15.1l4.3,4
	c-5.5,5.7-12.2,11.1-19.7,15.7c-7,4.4-17.2,9-27.5,12.2L1169.8,116.9z M1196.7,107.6l5.5-1.7v29.2c0,2.4,0.1,5.6,0.4,6.8h-6.3
	c0.2-1.2,0.4-4.4,0.4-6.8V107.6z M1246,93.2c4.5,3,12.7,9.7,16.3,13.2l-4,4.1c-3.3-3.3-11.2-10.2-16-13.4L1246,93.2z M1240.5,136
	c11.1-1.7,19.4-5.6,25.5-9.3c9.9-6.2,17.7-15.7,21.4-23.6l3.1,5.5c-4.3,7.9-11.8,16.6-21.4,22.7c-6.5,4-14.5,8-25.2,10L1240.5,136z
	 M1309.6,96.2c2.2,0.2,4.9,0.4,7,0.4h31.5c1.6,0,3.4-0.1,4.7-0.1c-0.1,1.4-0.1,3.5-0.1,4.9v33.1c0,2.3,0.2,5.2,0.3,6.1h-5.8
	c0-1,0.1-3.3,0.1-5.6v-33.3h-30.7c-2.4,0-5.5,0.1-7,0.3V96.2z M1308.9,131.5c1.6,0.1,4.4,0.3,7,0.3h34.4v5.2h-34.2
	c-2.6,0-5.5,0.1-7.2,0.3V131.5z M1372.4,112.3c2,0.2,5.3,0.4,9,0.4c4.7,0,30.3,0,35.1,0c3.2,0,5.4-0.3,6.9-0.4v6.3
	c-1.3-0.1-4-0.3-6.9-0.3c-4.9,0-30.4,0-35.1,0c-3.5,0-6.9,0.1-9,0.3V112.3z M1481,97.2c-0.4,0.5-1.2,1.9-1.5,2.8
	c-2.6,6.3-7.4,15.3-12.7,21.2c-7.2,8-16.3,15.6-26.4,20.2l-4.1-4.3c10.4-4,19.8-11.6,26.4-18.9c4.3-4.9,9-12.5,10.7-17.9
	c-2.3,0-22.8,0-25,0c-2.3,0-5.8,0.3-6.5,0.3v-5.8c0.8,0.1,4.5,0.4,6.5,0.4c2.5,0,22.3,0,24.7,0c2,0,3.8-0.2,4.8-0.5L1481,97.2z
	 M1467.6,117.9c6.9,5.8,15.4,14.7,19.8,20l-4.4,3.9c-4.6-6.1-12.1-14.3-19-20.4L1467.6,117.9z"/>
<g>
	
		<rect x="354.2" y="56.7" transform="matrix(0.1736 -0.9848 0.9848 0.1736 217.6045 422.8159)" class="st0" width="13" height="50"/>
</g>
<g>
	<rect x="377.8" y="24.5" transform="matrix(0.6428 -0.766 0.766 0.6428 99.3777 312.0579)" class="st0" width="13" height="50"/>
</g>
<g>
	<rect x="412.2" y="0.7" transform="matrix(0.9848 -0.1736 0.1736 0.9848 1.8904 73.1051)" class="st0" width="13" height="50"/>
</g>
</svg>
